# xmcd
#
# Track frame offsets: 
#        150
#        12677
#        27190
#        40493
#        54590
#        66219
#        78048
#        93445
#        109344
#        122464
#        135106
#        148921
#        159748
#        177044
#
# Disc length: 2541 seconds
#
# Revision: 0
# Processed by: cddbd v1.5PL3 Copyright (c) Steve Scherf et al.
# Submitted via: ExactAudioCopy v0.95a5
#
DISCID=b809eb0e
DTITLE=Kenny Rogers - Kenny Rogers Greatest Hits
DYEAR=1900
DGENRE=Country
TTITLE0=Reuben James
TTITLE1=Sunshine
TTITLE2=Ruby Don't Take Your Love To Town
TTITLE3=Molly
TTITLE4=Me And Bobby MvGee
TTITLE5=Elvirea
TTITLE6=For The Good Times
TTITLE7=Tulsa Turnaround
TTITLE8=Sleep Comes Easy
TTITLE9=Love Woman
TTITLE10=I'm Gonna Sing You A Sad Song
TTITLE11=We All Got To Help Each Other
TTITLE12=Somethings Burning
TTITLE13=Shine On Ruby Mountain
EXTD=
EXTT0=
EXTT1=
EXTT2=
EXTT3=
EXTT4=
EXTT5=
EXTT6=
EXTT7=
EXTT8=
EXTT9=
EXTT10=
EXTT11=
EXTT12=
EXTT13=
PLAYORDER=
